<?xml version="1.0" encoding="UTF-8" standalone="no"?>
<svg
   xmlns:dc="http://purl.org/dc/elements/1.1/"
   xmlns:cc="http://creativecommons.org/ns#"
   xmlns:rdf="http://www.w3.org/1999/02/22-rdf-syntax-ns#"
   xmlns:svg="http://www.w3.org/2000/svg"
   xmlns="http://www.w3.org/2000/svg"
   xmlns:sodipodi="http://sodipodi.sourceforge.net/DTD/sodipodi-0.dtd"
   xmlns:inkscape="http://www.inkscape.org/namespaces/inkscape"
   width="20"
   height="20"
   viewBox="0 0 20 20"
   id="svg4152"
   version="1.1"
   inkscape:version="0.91 r13725"
   sodipodi:docname="ref.svg">
  <sodipodi:namedview
     pagecolor="#ffffff"
     bordercolor="#666666"
     borderopacity="1"
     objecttolerance="10"
     gridtolerance="10"
     guidetolerance="10"
     inkscape:pageopacity="0"
     inkscape:pageshadow="2"
     inkscape:window-width="890"
     inkscape:window-height="634"
     id="namedview11"
     showgrid="false"
     inkscape:zoom="11.8"
     inkscape:cx="8.3317863"
     inkscape:cy="18.542144"
     inkscape:window-x="2163"
     inkscape:window-y="213"
     inkscape:window-maximized="0"
     inkscape:current-layer="g9977" />
  <defs
     id="defs4154" />
  <metadata
     id="metadata4157">
    <rdf:RDF>
      <cc:Work
         rdf:about="">
        <dc:format>image/svg+xml</dc:format>
        <dc:type
           rdf:resource="http://purl.org/dc/dcmitype/StillImage" />
        <dc:title />
      </cc:Work>
    </rdf:RDF>
  </metadata>
  <g
     id="g9975"
     transform="matrix(3.5433071,0,0,3.5433071,-23.492588,41.275389)">
    <g
       id="g9977"
       transform="matrix(0.03216139,0,0,-0.03216139,9.2176228,-8.6882087)"
       style="fill:none;stroke:#ff9632;stroke-opacity:1">
      <path
         inkscape:connector-curvature="0"
         d="m 78.195143,4.8937494 c -7.248773,0 -10.68585,-5.10803749 -11.892987,-10.5015067 C 61.955271,-25.017112 43.509246,-54.57118 6.8372228,-54.57118 c -32.8424828,0 -59.4649318,26.628394 -59.4649318,59.4649294 0,32.8365356 26.622449,59.4649326 59.4649318,59.4649326 13.3201442,0 25.5401882,-4.47771 35.4410992,-11.892987 l -11.655127,0 c -6.564927,0 -11.892986,-5.328057 -11.892986,-11.892986 0,-6.564928 5.328059,-11.892987 11.892986,-11.892987 l 35.678961,0 c 6.564933,0 11.892987,5.328059 11.892987,11.892987 l 0,35.678959 c 0,6.564928 -5.328054,11.89299 -11.892987,11.89299 -6.56493,0 -11.89299,-5.328062 -11.89299,-11.89299 l 0,-3.080283 C 40.928468,82.602523 24.539933,88.144658 6.8372228,88.144658 c -45.9782858,0 -83.2509048,-37.272623 -83.2509048,-83.2509086 0,-45.9782814 37.272619,-83.2509064 83.2509048,-83.2509064 59.3400562,0 83.2509102,56.491686 83.2509102,70.6146085 0,8.64025447 -6.315177,12.6362979 -11.89299,12.6362979 z"
         id="path3"
         style="stroke-width:5.94957699;fill:#ffc832;fill-opacity:1;stroke-miterlimit:4;stroke-dasharray:none;stroke:#ffc832;stroke-opacity:1" />
    </g>
  </g>
</svg>
